HIERARCHY
ROOT Hips
{
	OFFSET 0.000000 0.000000 0.000000
	CHANNELS 6 Xposition Yposition Zposition Zrotation Yrotation Xrotation 
	JOINT LHipJoint
	{
		OFFSET 0.000000 0.000000 0.000000
		CHANNELS 3 Zrotation Yrotation Xrotation
		JOINT LeftUpLeg
		{
			OFFSET 1.363060 -1.794630 0.839290
			CHANNELS 3 Zrotation Yrotation Xrotation
			JOINT LeftLeg
			{
				OFFSET 2.448110 -6.726130 0.000000
				CHANNELS 3 Zrotation Yrotation Xrotation
				JOINT LeftFoot
				{
					OFFSET 2.562200 -7.039590 0.000000
					CHANNELS 3 Zrotation Yrotation Xrotation
					JOINT LeftToeBase
					{
						OFFSET 0.157640 -0.433110 2.322550
						CHANNELS 3 Zrotation Yrotation Xrotation
						End Site
						{
							OFFSET 0.000000 0.000000 0.000000
						}
					}
				}
			}
		}
	}
	JOINT RHipJoint
	{
		OFFSET 0.000000 0.000000 0.000000
		CHANNELS 3 Zrotation Yrotation Xrotation
		JOINT RightUpLeg
		{
			OFFSET -1.305520 -1.794630 0.839290
			CHANNELS 3 Zrotation Yrotation Xrotation
			JOINT RightLeg
			{
				OFFSET -2.542530 -6.985550 0.000000
				CHANNELS 3 Zrotation Yrotation Xrotation
				JOINT RightFoot
				{
					OFFSET -2.568260 -7.056230 0.000000
					CHANNELS 3 Zrotation Yrotation Xrotation
					JOINT RightToeBase
					{
						OFFSET -0.164730 -0.452590 2.363150
						CHANNELS 3 Zrotation Yrotation Xrotation
						End Site
						{
							OFFSET 0.000000 0.000000 0.000000
						}
					}
				}
			}
		}
	}
	JOINT LowerBack
	{
		OFFSET 0.000000 0.000000 0.000000
		CHANNELS 3 Zrotation Yrotation Xrotation
		JOINT Spine
		{
			OFFSET 0.028270 2.035590 -0.193380
			CHANNELS 3 Zrotation Yrotation Xrotation
			JOINT Spine1
			{
				OFFSET 0.056720 2.048850 -0.042750
				CHANNELS 3 Zrotation Yrotation Xrotation
				JOINT Neck
				{
					OFFSET 0.000000 0.000000 0.000000
					CHANNELS 3 Zrotation Yrotation Xrotation
					JOINT Neck1
					{
						OFFSET -0.054170 1.746240 0.172020
						CHANNELS 3 Zrotation Yrotation Xrotation
						JOINT Head
						{
							OFFSET 0.104070 1.761360 -0.123970
							CHANNELS 3 Zrotation Yrotation Xrotation
							End Site
							{
								OFFSET 0.000000 0.000000 0.000000
							}
						}
					}
				}
				JOINT LeftShoulder
				{
					OFFSET 0.000000 0.000000 0.000000
					CHANNELS 3 Zrotation Yrotation Xrotation
					JOINT LeftArm
					{
						OFFSET 3.362410 1.200890 -0.311210
						CHANNELS 3 Zrotation Yrotation Xrotation
						JOINT LeftForeArm
						{
							OFFSET 4.983000 -0.000000 -0.000000
							CHANNELS 3 Zrotation Yrotation Xrotation
							JOINT LeftHand
							{
								OFFSET 3.483560 -0.000000 -0.000000
								CHANNELS 3 Zrotation Yrotation Xrotation
								JOINT LeftFingerBase
								{
									OFFSET 0.000000 0.000000 0.000000
									CHANNELS 3 Zrotation Yrotation Xrotation
									JOINT LeftHandIndex1
									{
										OFFSET 0.715260 -0.000000 -0.000000
										CHANNELS 3 Zrotation Yrotation Xrotation
										End Site
										{
											OFFSET 0.000000 0.000000 0.000000
										}
									}
								}
								JOINT LThumb
								{
									OFFSET 0.000000 0.000000 0.000000
									CHANNELS 3 Zrotation Yrotation Xrotation
									End Site
									{
										OFFSET 0.000000 0.000000 0.000000
									}
								}
							}
						}
					}
				}
				JOINT RightShoulder
				{
					OFFSET 0.000000 0.000000 0.000000
					CHANNELS 3 Zrotation Yrotation Xrotation
					JOINT RightArm
					{
						OFFSET -3.136600 1.374050 -0.404650
						CHANNELS 3 Zrotation Yrotation Xrotation
						JOINT RightForeArm
						{
							OFFSET -5.241900 -0.000000 -0.000000
							CHANNELS 3 Zrotation Yrotation Xrotation
							JOINT RightHand
							{
								OFFSET -3.444170 -0.000000 -0.000000
								CHANNELS 3 Zrotation Yrotation Xrotation
								JOINT RightFingerBase
								{
									OFFSET 0.000000 0.000000 0.000000
									CHANNELS 3 Zrotation Yrotation Xrotation
									JOINT RightHandIndex1
									{
										OFFSET -0.622530 -0.000000 -0.000000
										CHANNELS 3 Zrotation Yrotation Xrotation
										End Site
										{
											OFFSET 0.000000 0.000000 0.000000
										}
									}
								}
								JOINT RThumb
								{
									OFFSET 0.000000 0.000000 0.000000
									CHANNELS 3 Zrotation Yrotation Xrotation
									End Site
									{
										OFFSET 0.000000 0.000000 0.000000
									}
								}
							}
						}
					}
				}
			}
		}
	}
}
MOTION
Frames: 11
Frame Time: 0.008333
-4.862386 14.396110 -5.836593 -148.508654 -84.850972 -153.133315 3.856126 -2.021448 -4.814083 -23.048402 1.719799 -81.214870 21.497960 21.372727 95.583936 1.005910 -5.838456 9.420497 0.107700 2.116200 5.826900 -2.535555 2.905415 -3.394913 41.637638 23.272934 -105.346984 -9.971251 -18.633484 59.849006 2.499185 -16.986094 -13.272810 -0.358000 -3.843700 10.637300 -3.375238 0.939077 22.857839 1.703575 1.037359 -0.649465 0.232882 0.656703 -7.508793 -4.198391 5.959733 -18.067155 2.029822 5.474744 -32.501024 -0.417400 0.358000 -8.508900 -6.094549 -7.612067 2.229369 -174.003846 -73.891009 41.496190 3.722466 -8.135916 0.480751 -0.743483 -0.828958 94.591162 24.516293 19.826440 8.800900 -7.125000 0.000000 0.000000 -5.078700 52.344500 -0.920100 6.764860 5.463349 2.692474 95.425654 33.513522 56.468908 -76.903490 56.712795 -46.814122 -0.155007 -0.233845 -14.873021 -34.787447 -9.581677 6.408000 7.125000 0.000000 0.000000 -6.795300 -41.226100 -0.635800 
-4.780334 14.379145 -5.844244 -145.037343 -85.117741 -156.573503 3.894268 -2.035474 -4.822764 -22.767923 1.457458 -81.085850 21.504279 21.387686 95.516475 0.993935 -5.685062 7.862640 0.119700 2.230700 6.143600 -2.501631 2.903655 -3.384819 41.899081 23.443910 -105.597593 -9.927922 -18.608206 59.700745 2.477181 -16.848001 -13.109161 -0.352800 -3.816000 10.559500 -3.222990 0.908829 22.676302 1.723986 1.036198 -0.708730 0.196178 0.657058 -7.445958 -4.103573 5.928941 -17.806419 2.173437 5.435995 -32.623566 -0.388200 0.312300 -8.590200 -6.097236 -7.624412 2.252798 -173.714908 -73.902532 42.473259 3.703006 -7.968091 0.501192 -0.748779 -0.823401 93.323122 25.400980 19.456652 9.035400 -7.125000 0.000000 0.000000 -4.065600 52.151800 -0.716800 6.770924 5.460381 2.682316 95.554786 33.390466 56.499519 -77.237357 56.740107 -47.122319 -0.155487 -0.231917 -14.808534 -34.944610 -9.882165 6.649900 7.125000 0.000000 0.000000 -6.944500 -41.605300 -0.584700 
-4.705599 14.375707 -5.853558 -140.265834 -85.538620 -161.584363 3.913512 -2.074282 -4.831160 -22.355452 1.185187 -80.612612 21.471043 21.395568 95.340090 1.005315 -5.608101 6.346977 0.074300 1.758300 4.838200 -2.435472 2.884050 -3.372850 42.418340 23.268681 -105.649660 -9.875441 -18.566863 59.546478 2.416099 -16.535007 -13.067204 -0.390200 -4.011200 11.108300 -2.898549 0.847903 22.811199 1.785425 1.015281 -0.561743 0.086937 0.638031 -7.361121 -4.514064 5.763642 -17.958731 2.764851 5.321169 -32.757599 -0.126000 0.220400 -8.629800 -6.077590 -7.659598 2.232459 -174.000120 -73.857733 44.045996 3.690160 -7.828881 0.519958 -0.752588 -0.827229 91.893312 26.074958 19.101052 9.179600 -7.125000 0.000000 0.000000 -3.282200 51.930500 -0.560600 6.783893 5.420454 2.691873 95.643641 33.610857 56.555076 -77.365575 56.753704 -47.237356 -0.159206 -0.232401 -14.769856 -35.247998 -9.844420 6.698200 7.125000 0.000000 0.000000 -7.214900 -41.593800 -0.609700 
-4.628648 14.354085 -5.858991 -138.714332 -85.941527 -163.192763 3.863879 -2.116489 -4.829746 -22.156087 0.651139 -80.319052 21.454495 21.425502 95.202185 1.004159 -5.361771 4.634788 0.031400 1.143000 3.142300 -2.452576 2.869805 -3.370790 42.466766 23.187910 -106.043179 -9.835397 -18.546722 59.420286 2.395225 -16.413161 -12.975877 -0.431000 -4.213100 11.676900 -2.831509 0.826268 22.739707 1.834480 1.002691 -0.377875 0.088933 0.628038 -7.157848 -5.033172 5.516826 -18.591333 3.273088 5.115196 -32.651739 0.131300 0.112700 -8.510100 -6.055518 -7.674698 2.184944 -174.791803 -73.646798 46.039848 3.694023 -7.745500 0.534424 -0.750633 -0.844861 90.695412 26.258053 19.056614 9.243000 -7.125000 0.000000 0.000000 -3.092200 51.937000 -0.528600 6.791860 5.387252 2.713092 95.574018 34.023323 56.428120 -77.512640 56.766214 -47.374018 -0.160315 -0.229087 -14.627724 -35.295288 -10.009449 6.825300 7.125000 0.000000 0.000000 -7.262700 -41.801500 -0.576400 
-4.553470 14.341112 -5.869747 -139.067128 -86.137002 -163.055591 3.764171 -2.147782 -4.807704 -22.150688 0.343141 -79.830728 21.406228 21.447041 94.980687 0.981045 -4.931473 3.057061 0.016200 0.822800 2.261500 -2.468470 2.875887 -3.381287 42.331065 23.128030 -106.168534 -9.796591 -18.527785 59.289562 2.409570 -16.446853 -12.817499 -0.438000 -4.246500 11.771200 -3.027050 0.773363 22.904608 1.752370 0.889707 -0.477139 0.151608 0.579559 -7.340982 -4.667950 5.568634 -18.387134 3.128561 5.147252 -32.535499 0.017400 0.122200 -8.490500 -6.066938 -7.650512 2.234171 -174.008372 -73.749800 46.530103 3.746015 -7.715951 0.527939 -0.726570 -0.858415 89.813126 26.012946 19.195332 9.195700 -7.125000 0.000000 0.000000 -3.375100 52.025800 -0.584400 6.794791 5.407667 2.691120 95.835383 33.711565 56.530067 -77.798656 56.799437 -47.642331 -0.159268 -0.226394 -14.407463 -35.246614 -10.406379 7.085600 7.125000 0.000000 0.000000 -7.231000 -42.274900 -0.489000 
-4.480288 14.334348 -5.876289 -136.263010 -86.455156 -166.064281 3.715089 -2.189332 -4.802837 -21.970849 -0.009490 -79.322999 21.374918 21.462695 94.810815 0.933490 -4.383670 1.734092 0.011400 0.689200 1.893900 -2.446044 2.861062 -3.378238 42.614882 22.959646 -106.299657 -9.750224 -18.494273 59.136709 2.399015 -16.332424 -12.536442 -0.412400 -4.122200 11.420700 -2.964095 0.696486 23.043361 1.778164 0.805529 -0.467215 0.193010 0.536526 -7.413418 -4.370527 5.562910 -18.479565 2.958723 5.104414 -32.372127 -0.087900 0.098300 -8.411600 -6.073747 -7.621572 2.247137 -173.785506 -73.782287 47.478321 3.813252 -7.746416 0.515113 -0.703122 -0.876820 89.095878 25.454231 19.345348 9.018800 -7.125000 0.000000 0.000000 -3.986400 52.063300 -0.694100 6.791772 5.427574 2.687839 95.936861 33.621544 56.643689 -78.073297 56.824349 -47.899812 -0.158129 -0.224510 -14.326965 -35.296995 -10.774665 7.351200 7.125000 0.000000 0.000000 -7.287500 -42.724400 -0.411600 
-4.410100 14.319934 -5.873184 -132.954866 -86.907364 -169.467761 3.665416 -2.246206 -4.807653 -21.742752 -0.610898 -78.912751 21.361620 21.489004 94.696238 0.893292 -3.862683 0.352409 0.009300 0.624000 1.714700 -2.442927 2.827753 -3.370205 42.990049 22.710631 -106.638663 -9.707891 -18.461488 58.985297 2.416191 -16.310064 -12.015964 -0.296700 -3.502600 9.681400 -2.730073 0.596832 23.082850 1.823386 0.721682 -0.441312 0.134883 0.489711 -7.395381 -4.404177 5.455142 -18.417569 3.099560 4.966310 -32.459341 -0.029700 0.015900 -8.454400 -6.068846 -7.639775 2.247148 -174.067976 -73.662191 48.880815 3.874273 -7.786787 0.505526 -0.688813 -0.893797 88.471377 24.968851 19.406283 8.838200 -7.125000 0.000000 0.000000 -4.501300 52.028600 -0.780300 6.793177 5.425553 2.675776 95.893591 33.520113 56.596073 -78.493139 56.847186 -48.282312 -0.160428 -0.220418 -14.143477 -35.332267 -10.993091 7.512600 7.125000 0.000000 0.000000 -7.324300 -42.996400 -0.364200 
-4.321172 14.285117 -5.887599 -126.618700 -87.170827 -175.458446 3.761558 -2.288218 -4.852875 -21.431252 -1.067131 -79.244814 21.428791 21.513907 94.809609 0.877377 -3.468119 -1.052043 0.004500 0.433500 1.191100 -2.432409 2.779018 -3.334260 43.190621 23.139793 -107.261999 -9.675629 -18.443846 58.831863 2.466125 -16.468185 -11.446253 -0.237700 -3.137600 8.662000 -2.609612 0.534539 22.708142 1.809072 0.687326 -0.626766 0.120042 0.466777 -7.348748 -3.919458 5.561301 -17.914739 2.763228 5.008215 -32.698966 -0.215500 0.017500 -8.601400 -6.081855 -7.653625 2.272856 -174.138151 -73.627850 50.201644 3.903565 -7.737286 0.500016 -0.676262 -0.905065 87.894436 24.565694 19.407801 8.669900 -7.125000 0.000000 0.000000 -4.911100 51.948400 -0.841900 6.789946 5.458923 2.645161 96.084852 32.960866 56.548370 -79.449264 56.906668 -49.158655 -0.164378 -0.210875 -13.673059 -35.270448 -11.561063 7.887900 7.125000 0.000000 0.000000 -7.277600 -43.681500 -0.238200 
-4.252426 14.275027 -5.889373 -119.250493 -87.617400 176.916416 3.729588 -2.387017 -4.878171 -21.179488 -1.549336 -78.771654 21.429706 21.521511 94.756597 0.839715 -2.983666 -2.220039 0.004700 0.443300 1.217900 -2.400099 2.699745 -3.307054 43.451379 22.839794 -107.462268 -9.643148 -18.413774 58.730413 2.436218 -16.274723 -11.210934 -0.283900 -3.426800 9.469300 -2.359997 0.388382 22.941930 1.844807 0.554296 -0.612416 0.078121 0.385554 -7.453390 -3.721405 5.564833 -17.836417 2.671035 4.987216 -32.701768 -0.277300 -0.000800 -8.610600 -6.083162 -7.658800 2.280281 -174.173704 -73.614542 51.396870 3.931092 -7.696468 0.498150 -0.676601 -0.904430 87.296327 24.647029 19.117432 8.592000 -7.125000 0.000000 0.000000 -4.742000 51.665000 -0.779800 6.789845 5.467750 2.632067 96.072153 32.814669 56.499744 -80.212809 56.940554 -49.885683 -0.159275 -0.200408 -13.378571 -35.010839 -12.844442 8.678300 7.125000 0.000000 0.000000 -7.052200 -45.188200 0.032900 
-4.180574 14.268374 -5.895361 -111.365069 -87.962082 168.944658 3.713882 -2.488314 -4.913254 -20.929412 -2.009900 -78.600898 21.448839 21.532078 94.768235 0.819901 -2.653069 -3.127171 0.002500 0.322700 0.886700 -2.398465 2.609391 -3.274129 43.651191 22.725791 -107.720900 -9.598570 -18.380351 58.589320 2.385747 -15.996050 -11.040030 -0.313000 -3.596600 9.944500 -2.305647 0.295070 23.016921 1.935119 0.471062 -0.605346 0.175378 0.338107 -7.495376 -3.773713 5.387016 -18.042571 2.846266 4.767217 -32.635673 -0.201800 -0.121200 -8.560100 -6.081195 -7.664148 2.275055 -174.250450 -73.557365 52.583952 3.964866 -7.669884 0.511168 -0.680932 -0.905547 86.397877 25.317310 18.925950 8.796600 -7.125000 0.000000 0.000000 -4.012300 51.609200 -0.654000 6.791893 5.457064 2.624107 95.907010 32.865581 56.466529 -80.553144 56.948983 -50.214256 -0.155855 -0.194166 -13.376492 -34.793085 -13.454894 9.016400 7.125000 0.000000 0.000000 -6.846700 -45.888400 0.150800 
-4.097191 14.242206 -5.897800 -103.055565 -88.280597 161.017974 3.736531 -2.590778 -4.970494 -20.670757 -2.701488 -79.092037 21.526385 21.568826 94.939157 0.797662 -2.299460 -4.097239 0.000200 -0.097000 -0.266500 -2.473907 2.502902 -3.231081 43.583989 23.010480 -108.494778 -9.555807 -18.359294 58.439033 2.316689 -15.640539 -10.853133 -0.420500 -4.161900 11.532600 -2.183895 0.167329 22.657563 1.909316 0.347773 -0.760123 0.125307 0.254770 -7.453424 -3.382475 5.154028 -18.269539 2.856983 4.402801 -32.561739 -0.246900 -0.347500 -8.495000 -6.083587 -7.656184 2.261578 -174.446443 -73.531512 53.976927 3.985027 -7.596351 0.521343 -0.658136 -0.930999 85.504816 25.134475 19.372837 8.900100 -7.125000 0.000000 0.000000 -4.331400 52.045100 -0.752500 6.785404 5.459305 2.623324 96.053605 32.815497 56.511125 -80.626219 56.965416 -50.276510 -0.157343 -0.193392 -13.446941 -34.773848 -13.214508 8.852900 7.125000 0.000000 0.000000 -6.828400 -45.602600 0.102000 
